<svg xmlns="http://www.w3.org/2000/svg" viewBox="0 0 804.7 626" xmlns:v="https://vecta.io/nano"><path d="M567.2 7.1c-.4-4-3.6-7.1-7.7-7.1H243.8c-4 0-7.3 3.1-7.7 7.1l-26.5 320.4c-.4 4.4 3.1 8.2 7.7 8.2h370c4.4 0 8.1-3.8 7.7-8.2L567.2 7.1zM394.4 299.7c-55.2 0-100.1-54.1-100.1-120.3 0-3.5 2.9-6.3 6.3-6.3 3.5 0 6.3 2.9 6.3 6.3 0 59.5 39.3 107.8 87.7 107.8 48.3 0 87.7-48.3 87.7-107.8 0-3.5 2.9-6.3 6.3-6.3s6.3 2.9 6.3 6.3c-.4 66.2-45.3 120.3-100.5 120.3zM525 175.5c-2.5 2.5-6.3 2.5-8.8 0l-27.6-27.6-28 28c-1.2 1.2-2.9 1.9-4.4 1.9s-3.3-.6-4.4-1.9c-2.5-2.5-2.5-6.3 0-8.8l32.4-32.4c1.2-1.2 2.7-1.9 4.4-1.9s3.3.6 4.4 1.9l32 32c2.5 2.5 2.5 6.3 0 8.8z" fill="#53c174"/><path d="M254.7 109.3h288.6v242H254.7z" fill="#fff"/><linearGradient id="A" gradientUnits="userSpaceOnUse" x1="606.867" y1="433.731" x2="198.94" y2="37.072"><stop offset="0" stop-color="#5dcb79"/><stop offset="1" stop-color="#61d67f"/></linearGradient><path d="M624.4 410.9L592.7 27.2c-.4-5-4.6-8.8-9.6-8.8h-362c-5 0-9.2 3.8-9.6 8.8L181 410.9c-.4 5.6 4 10.4 9.6 10.4H615c5.5 0 9.9-4.8 9.4-10.4zm-230-111.2c-55.2 0-100.1-54.1-100.1-120.3 0-3.5 2.9-6.3 6.3-6.3 3.5 0 6.3 2.9 6.3 6.3 0 59.5 39.3 107.8 87.7 107.8s87.7-48.3 87.7-107.8c0-3.5 2.9-6.3 6.3-6.3 3.5 0 6.3 2.9 6.3 6.3-.4 66.2-45.3 120.3-100.5 120.3zM525 175.5c-2.5 2.5-6.3 2.5-8.8 0l-27.6-27.6-28 28c-1.2 1.2-2.9 1.9-4.4 1.9s-3.3-.6-4.4-1.9c-2.5-2.5-2.5-6.3 0-8.8l32.4-32.4c1.2-1.2 2.7-1.9 4.4-1.9s3.3.6 4.4 1.9l32 32c2.5 2.5 2.5 6.3 0 8.8z" fill="url(#A)"/><path d="M605.6 183.9l4.3 52.5 69.8 65.1H125l69.9-65.3 4.2-52.4-126 117.7H73v103.9c0 47 44.5 85.3 99.1 85.3h104.1c54.6 0 99.1-38.3 99.1-85.3v-68.3h54v68.3c0 47 44.5 85.3 99.1 85.3h104.1c54.6 0 99.1-38.3 99.1-85.3V301.6l-126-117.7z" fill="#fc60a8"/><path d="M69.7 538c5.5 0 10 1.9 13.9 5.8s5.8 8.5 5.8 13.9v68.2H19.7c-5.5 0-10-1.9-13.9-5.8S0 611.6 0 606.2v-32.5h73v-16.1c0-1-.3-1.7-1-2.3s-1.4-1-2.3-1H0V538h69.7 0zm3.3 71.5v-19.4H16.4v16.1c0 1 .3 1.7 1 2.3.7.7 1.4 1 2.3 1H73h0zM230.8 538h17.5l-33 87.9H202l-29.6-65.3-27.9 65.3-.3-.1.1.1h-13.2L96.5 538h17.3l23.8 58.3L163 538h18.7l26.8 58.3 22.3-58.3zm92.4 0c5.5 0 10 1.9 13.9 5.8s5.8 8.5 5.8 13.9v32.5h-73v16.1c0 1 .3 1.7 1 2.3s1.4 1 2.3 1h69.7V626h-69.7c-5.5 0-10-1.9-13.9-5.8s-5.8-8.5-5.8-13.9v-48.5c0-5.5 1.9-10 5.8-13.9s8.5-5.8 13.9-5.8l50-.1h0zm-53.4 35.7h56.7v-16.1c0-1-.3-1.7-1-2.3-.7-.7-1.4-1-2.3-1h-50.1c-1 0-1.7.3-2.3 1s-1 1.4-1 2.3v16.1h0zm177.4-15.9v3.3h-16.4v-3.3c0-1-.3-1.7-1-2.3s-1.4-1-2.3-1h-50.1c-1 0-1.7.3-2.3 1s-1 1.4-1 2.3v12.8c0 1 .3 1.7 1 2.3s1.4 1 2.3 1h50.1c5.5 0 10 1.9 13.9 5.8s5.8 8.5 5.8 13.9v12.8c0 5.5-1.9 10-5.8 13.9s-8.5 5.8-13.9 5.8h-50.1c-5.5 0-10-1.9-13.9-5.8s-5.8-8.5-5.8-13.9V603h16.4v3.3c0 1 .3 1.7 1 2.3s1.4 1 2.3 1h50.1c1 0 1.7-.3 2.3-1s1-1.4 1-2.3v-12.8c0-1-.3-1.7-1-2.3s-1.4-1-2.3-1h-50.1c-5.5 0-10-1.9-13.9-5.8s-5.8-8.5-5.8-13.9v-12.8c0-5.5 1.9-10 5.8-13.9s8.5-5.8 13.9-5.8h50.1c5.5 0 10 1.9 13.9 5.8 3.9 3.8 5.8 8.5 5.8 14zm34.7-19.8H532c5.5 0 10 1.9 13.9 5.8s5.8 8.5 5.8 13.9v48.5c0 5.5-1.9 10-5.8 13.9s-8.5 5.8-13.9 5.8h-50.1c-5.5 0-10-1.9-13.9-5.8s-5.8-8.5-5.8-13.9v-48.5c0-5.5 1.9-10 5.8-13.9 3.8-3.9 8.5-5.8 13.9-5.8h0zm50 16.3h-50.1c-1 0-1.7.3-2.3 1s-1 1.4-1 2.3v48.5c0 1 .3 1.7 1 2.3s1.4 1 2.3 1h50.1c1 0 1.7-.3 2.3-1s1-1.4 1-2.3v-48.5c0-1-.3-1.7-1-2.3-.6-.5-1.3-1-2.3-1zM679.8 538c5.5 0 10 1.9 13.9 5.8s5.8 8.5 5.8 13.9v68.2h-16.2v-68.2c0-1-.3-1.7-1-2.3s-1.5-1-2.5-1h-34.7c-1 0-1.7.3-2.3 1s-1 1.4-1 2.3v68.2h-16.4v-68.2c0-1-.3-1.7-1-2.3s-1.4-1-2.3-1h-34.8c-1 0-1.7.3-2.3 1s-1 1.4-1 2.3v68.2h-16.4V538h112.2zm105.2 0c5.5 0 10 1.9 13.9 5.8s5.8 8.5 5.8 13.9v32.5h-73v16.1c0 1 .3 1.7 1 2.3s1.4 1 2.3 1h69.7V626H735c-5.5 0-10-1.9-13.9-5.8s-5.8-8.5-5.8-13.9v-48.5c0-5.5 1.9-10 5.8-13.9s8.5-5.8 13.9-5.8l50-.1h0zm-53.4 35.7h56.7v-16.1c0-1-.3-1.7-1-2.3s-1.4-1-2.3-1h-50.1c-1 0-1.7.3-2.3 1s-1 1.4-1 2.3v16.1h0z" fill="#494368"/></svg>