<svg version="1.1" id="Layer_1" xmlns="http://www.w3.org/2000/svg" x="0" y="0" viewBox="0 0 804.7 697.8" style="enable-background:new 0 0 804.7 697.8" xml:space="preserve"><style>.st0{fill:#02c652}</style><path class="st0" d="M375.1 7.6c-4.9 3.1-9.8 7.9-19.4 17.6-9.7 9.7-14.5 14.5-17.6 19.4-10.1 16.3-10.1 37 0 53.3 3.1 4.9 7.9 9.8 17.6 19.4 9.7 9.7 14.5 14.5 19.4 17.6 16.3 10.1 37 10.1 53.3 0 4.9-3.1 9.8-7.9 19.4-17.6 9.7-9.7 14.5-14.5 17.6-19.4 10.1-16.3 10.1-37 0-53.3-3.1-4.9-7.9-9.8-17.6-19.4-9.7-9.7-14.5-14.5-19.4-17.6-16.3-10.1-37-10.1-53.3 0zM438.8 310.3l112.6-112.6c4.7-4.7 10.2-8.4 16.3-10.9 6.1-2.5 12.6-3.8 19.2-3.8s13.1 1.3 19.2 3.8 11.6 6.2 16.3 10.9l56.6 56.6-276.3 276.3-276.3-276.3 57.2-57.2c4.7-4.7 10.2-8.4 16.3-10.9 6.1-2.5 12.6-3.8 19.2-3.8s13.1 1.3 19.2 3.8 11.6 6.2 16.3 10.9l113.2 113.2c4.7 4.7 10.2 8.4 16.3 10.9 6.1 2.5 12.6 3.8 19.2 3.8s13.1-1.3 19.2-3.8 11.6-6.2 16.3-10.9z"/><path d="M69.7 609.8c5.5 0 10 1.9 13.9 5.8s5.8 8.5 5.8 13.9v68.2H19.7c-5.5 0-10-1.9-13.9-5.8S0 683.4 0 678v-32.5h73v-16.1c0-1-.3-1.7-1-2.3s-1.4-1-2.3-1H0v-16.3h69.7zm3.3 71.5v-19.4H16.4V678c0 1 .3 1.7 1 2.3.7.7 1.4 1 2.3 1H73zm157.8-71.5h17.5l-33 87.9H202l-29.6-65.3-27.9 65.3-.3-.1.1.1h-13.2l-34.6-87.9h17.3l23.8 58.3 25.4-58.3h18.7l26.8 58.3 22.3-58.3zm92.4 0c5.5 0 10 1.9 13.9 5.8s5.8 8.5 5.8 13.9V662h-73v16.1c0 1 .3 1.7 1 2.3s1.4 1 2.3 1h69.7v16.4h-69.7c-5.5 0-10-1.9-13.9-5.8s-5.8-8.5-5.8-13.9v-48.5c0-5.5 1.9-10 5.8-13.9 3.9-3.9 8.5-5.8 13.9-5.8l50-.1zm-53.4 35.7h56.7v-16.1c0-1-.3-1.7-1-2.3-.7-.7-1.4-1-2.3-1h-50.1c-1 0-1.7.3-2.3 1s-1 1.4-1 2.3v16.1zm177.4-15.9v3.3h-16.4v-3.3c0-1-.3-1.7-1-2.3s-1.4-1-2.3-1h-50.1c-1 0-1.7.3-2.3 1s-1 1.4-1 2.3v12.8c0 1 .3 1.7 1 2.3s1.4 1 2.3 1h50.1c5.5 0 10 1.9 13.9 5.8s5.8 8.5 5.8 13.9v12.8c0 5.5-1.9 10-5.8 13.9s-8.5 5.8-13.9 5.8h-50.1c-5.5 0-10-1.9-13.9-5.8s-5.8-8.5-5.8-13.9v-3.4h16.4v3.3c0 1 .3 1.7 1 2.3s1.4 1 2.3 1h50.1c1 0 1.7-.3 2.3-1s1-1.4 1-2.3v-12.8c0-1-.3-1.7-1-2.3s-1.4-1-2.3-1h-50.1c-5.5 0-10-1.9-13.9-5.8s-5.8-8.5-5.8-13.9v-12.8c0-5.5 1.9-10 5.8-13.9s8.5-5.8 13.9-5.8h50.1c5.5 0 10 1.9 13.9 5.8 3.9 3.8 5.8 8.5 5.8 14zm34.7-19.8H532c5.5 0 10 1.9 13.9 5.8s5.8 8.5 5.8 13.9V678c0 5.5-1.9 10-5.8 13.9s-8.5 5.8-13.9 5.8h-50.1c-5.5 0-10-1.9-13.9-5.8s-5.8-8.5-5.8-13.9v-48.5c0-5.5 1.9-10 5.8-13.9 3.8-3.9 8.5-5.8 13.9-5.8zm50 16.3h-50.1c-1 0-1.7.3-2.3 1s-1 1.4-1 2.3v48.5c0 1 .3 1.7 1 2.3s1.4 1 2.3 1h50.1c1 0 1.7-.3 2.3-1s1-1.4 1-2.3v-48.5c0-1-.3-1.7-1-2.3-.6-.5-1.3-1-2.3-1zm147.9-16.3c5.5 0 10 1.9 13.9 5.8s5.8 8.5 5.8 13.9v68.2h-16.2v-68.2c0-1-.3-1.7-1-2.3s-1.5-1-2.5-1h-34.7c-1 0-1.7.3-2.3 1s-1 1.4-1 2.3v68.2h-16.4v-68.2c0-1-.3-1.7-1-2.3s-1.4-1-2.3-1h-34.8c-1 0-1.7.3-2.3 1s-1 1.4-1 2.3v68.2h-16.4v-87.9h112.2zm105.2 0c5.5 0 10 1.9 13.9 5.8s5.8 8.5 5.8 13.9V662h-73v16.1c0 1 .3 1.7 1 2.3s1.4 1 2.3 1h69.7v16.4H735c-5.5 0-10-1.9-13.9-5.8s-5.8-8.5-5.8-13.9v-48.5c0-5.5 1.9-10 5.8-13.9s8.5-5.8 13.9-5.8l50-.1zm-53.4 35.7h56.7v-16.1c0-1-.3-1.7-1-2.3s-1.4-1-2.3-1h-50.1c-1 0-1.7.3-2.3 1s-1 1.4-1 2.3v16.1z" style="fill:#494368"/><path d="m642.8 290.5-25.1 25.1 61.9 57.8H125l62.2-58.1-25.1-25.1L73 373.4v103.9c0 47 44.5 85.3 99.1 85.3h104.1c54.6 0 99.1-38.3 99.1-85.3V409h54v68.3c0 47 44.5 85.3 99.1 85.3h104.1c54.6 0 99.1-38.3 99.1-85.3V373.4l-88.8-82.9z" style="fill:#fc60a8"/></svg>
